<?xml version="1.0" encoding="utf-8"?>
<!-- Generator: Adobe Illustrator 19.0.0, SVG Export Plug-In . SVG Version: 6.00 Build 0)  -->
<svg version="1.1" id="Layer_1" xmlns="http://www.w3.org/2000/svg" xmlns:xlink="http://www.w3.org/1999/xlink" x="0px" y="0px"
	 viewBox="0 0 50 50" style="enable-background:new 0 0 50 50;" xml:space="preserve">
<style type="text/css">
	.st0{fill:#FFFFFF;}
</style>
<g id="_x33__6_">
	<g id="XMLID_37_">
		<path id="XMLID_38_" class="st0" d="M47,22.6H3c-1.3,0-2.4,1.1-2.4,2.4c0,1.3,1.1,2.4,2.4,2.4H47c1.3,0,2.4-1.1,2.4-2.4
			C49.4,23.7,48.3,22.6,47,22.6z M3,7.9H47c1.3,0,2.4-1.1,2.4-2.4C49.4,4.1,48.3,3,47,3H3C1.7,3,0.6,4.1,0.6,5.5
			C0.6,6.8,1.7,7.9,3,7.9z M47,42.1H3c-1.3,0-2.4,1.1-2.4,2.4C0.6,45.9,1.7,47,3,47H47c1.3,0,2.4-1.1,2.4-2.4
			C49.4,43.2,48.3,42.1,47,42.1z"/>
	</g>
</g>
</svg>
