<?xml version="1.0" encoding="utf-8"?>
<!-- Generator: Adobe Illustrator 19.0.0, SVG Export Plug-In . SVG Version: 6.00 Build 0)  -->
<svg version="1.1" id="Layer_1" xmlns="http://www.w3.org/2000/svg" xmlns:xlink="http://www.w3.org/1999/xlink" x="0px" y="0px"
	 viewBox="0 0 50 50" style="enable-background:new 0 0 50 50;" xml:space="preserve">
<style type="text/css">
	.st0{fill:#FFFFFF;}
</style>
<g id="_x34__5_">
	<g id="XMLID_31_">
		<path id="XMLID_34_" class="st0" d="M27.8,30H20c-0.9,0-1.7,0.7-1.7,1.7s0.7,1.7,1.7,1.7h11.6c0.9,0,1.7-0.7,1.7-1.7V20
			c0-0.9-0.7-1.7-1.7-1.7c-0.9,0-1.7,0.7-1.7,1.7v7.5L5.4,2.9C4.8,2.2,3.7,2.2,3,2.9C2.4,3.5,2.4,4.6,3,5.2L27.8,30z M41.6,1.7H23.3
			V5h18.3C43.4,5,45,6.6,45,8.4L45,41.7c0,1.8-1.5,3.3-3.3,3.3L8.4,45C6.6,45,5,43.4,5,41.6V23.3H1.7v18.3c0,3.6,3.7,6.7,7.3,6.7
			h32.7c3.6,0,6.5-2.9,6.5-6.5V9C48.3,5.4,45.2,1.7,41.6,1.7z"/>
	</g>
</g>
</svg>
